<?xml version="1.0" encoding="utf-8"?>
<svg id="Layer_1" viewBox="0 0 48 48" xmlns="http://www.w3.org/2000/svg">
  <defs>
    <style>.cls-1{fill:#333;}.cls-2{fill:#707070;}</style>
  </defs>
  <path d="M 6.801 3.002 L 41.778 3.002 C 43.409 3.002 44.732 4.003 44.732 5.238 L 44.732 11.683 C 44.732 12.918 43.409 13.919 41.778 13.919 L 6.801 13.919 C 5.169 13.919 3.847 12.918 3.847 11.683 L 3.847 5.238 C 3.847 4.003 5.169 3.002 6.801 3.002 Z" style="stroke: rgb(0, 0, 0); opacity: 1; stroke-width: 0px; fill: rgb(255, 255, 255);"/>
  <path d="M 6.53 18.188 L 41.86 18.188 C 43.499 18.188 44.827 19.201 44.827 20.45 L 44.827 27.596 C 44.827 28.846 43.499 29.858 41.86 29.858 L 6.53 29.858 C 4.891 29.858 3.563 28.846 3.563 27.596 L 3.563 20.45 C 3.563 19.201 4.891 18.188 6.53 18.188 Z" style="stroke: rgb(0, 0, 0); opacity: 1; stroke-width: 0px; stroke-opacity: 0; fill: rgb(255, 255, 255);"/>
  <path d="M 6.389 33.647 L 41.855 33.647 C 43.512 33.647 44.855 34.618 44.855 35.814 L 44.855 42.709 C 44.855 43.905 43.512 44.876 41.855 44.876 L 6.389 44.876 C 4.732 44.876 3.389 43.905 3.389 42.709 L 3.389 35.814 C 3.389 34.618 4.732 33.647 6.389 33.647 Z" style="stroke: rgb(0, 0, 0); opacity: 1; stroke-width: 0px; stroke-miterlimit: 1; fill: rgb(255, 253, 253);"/>
  <path d="M 35.713 0.404 L 37.293 0.404 C 37.498 0.404 37.685 0.417 37.813 0.438 C 38 0.475 38.221 0.553 38.367 0.654 C 38.374 0.659 38.381 0.664 38.388 0.669 L 38.388 0.404 L 42.823 0.404 C 43.112 0.406 43.397 0.449 43.586 0.515 C 43.791 0.609 44.02 0.802 44.151 0.993 C 44.259 1.189 44.343 1.463 44.343 1.685 C 44.343 1.933 44.236 2.216 44.091 2.432 L 43.754 2.264 C 43.735 2.285 43.715 2.307 43.693 2.329 C 43.773 2.414 43.853 2.511 43.927 2.612 C 43.711 2.778 43.403 2.911 43.103 2.96 L 44.055 2.805 L 44.99 4.267 L 43.326 4.267 L 42.8 3.439 C 42.697 3.277 42.617 3.164 42.554 3.085 C 42.503 3.017 42.5 3.009 42.484 3.005 C 42.48 3.001 42.478 2.999 42.476 2.997 C 42.464 2.994 42.451 2.995 42.372 2.996 L 42.433 2.996 L 42.433 4.267 L 38.388 4.267 L 38.388 2.799 C 38.115 2.977 37.725 3.094 37.326 3.103 L 37.091 3.103 L 37.091 4.267 L 35.713 4.267 L 35.713 0.404 Z M 37.091 1.765 L 37.332 1.765 C 37.477 1.771 37.5 1.778 37.508 1.778 C 37.508 1.771 37.508 1.761 37.508 1.744 C 37.508 1.744 37.508 1.744 37.508 1.744 C 37.477 1.742 37.426 1.742 37.324 1.742 L 37.091 1.742 L 37.091 1.765 Z M 39.552 2.289 L 39.267 2.619 L 39.673 2.432 L 40.516 3.42 L 40.458 0.904 L 40.458 1.242 L 39.678 2.144 L 39.267 1.955 L 39.552 2.289 Z M 39.987 2.287 L 40.351 2.119 L 40.351 2.455 L 39.987 2.287 Z M 42.839 1.72 C 42.983 1.711 42.973 1.692 42.973 1.723 C 42.996 1.723 42.977 1.689 42.963 1.679 C 42.964 1.678 42.964 1.677 42.964 1.677 C 42.981 1.672 43.009 1.635 42.982 1.645 C 42.936 1.661 42.89 1.669 42.747 1.667 L 42.433 1.667 L 42.433 1.72 L 42.839 1.72 Z" style="fill: none;"/>
  <path d="M 34.667 15.587 L 36.159 15.587 L 36.278 15.919 L 36.652 16.966 L 36.22 18.501 C 36.267 18.332 36.326 18.157 36.388 17.992 L 36.71 17.126 L 37.022 17.998 C 37.084 18.173 37.14 18.348 37.183 18.504 L 36.764 16.98 L 37.281 15.587 L 39.414 15.587 C 39.673 15.59 39.952 15.633 40.141 15.716 C 40.25 15.764 40.362 15.844 40.461 15.936 L 40.461 15.587 L 43.511 15.587 L 43.511 16.602 L 43.4 16.739 L 42.542 17.799 L 42.511 16.248 L 42.511 16.587 L 41.971 16.33 C 42.05 16.237 42.128 16.15 42.201 16.075 L 41.958 16.324 L 41.461 16.087 L 41.461 16.425 L 41.43 16.867 L 41.373 16.925 L 40.857 16.925 C 40.847 17.009 40.826 17.098 40.798 17.183 L 40.464 17.07 C 40.46 17.087 40.455 17.104 40.45 17.121 C 40.556 17.19 40.653 17.27 40.73 17.351 C 40.717 17.378 40.704 17.403 40.69 17.426 C 40.641 17.505 40.571 17.584 40.49 17.657 C 40.497 17.67 40.503 17.684 40.509 17.698 L 40.839 17.518 C 40.862 17.563 40.884 17.612 40.903 17.661 L 41.419 17.016 L 41.317 18.459 L 41.841 18.666 L 41.782 18.738 L 41.844 18.667 L 42.558 18.95 L 42.558 18.612 L 42.548 18.112 L 43.558 18.112 L 43.558 19.45 L 40.295 19.45 L 40.295 19.282 C 40.204 19.326 40.107 19.363 40.016 19.387 C 39.855 19.427 39.639 19.449 39.431 19.45 L 37.839 19.45 L 37.839 17.91 L 37.236 19.45 L 36.163 19.45 Z M 39.291 16.925 C 39.474 16.924 39.541 16.925 39.573 16.941 C 39.582 16.93 39.511 16.89 39.501 16.883 C 39.502 16.882 39.499 16.871 39.496 16.864 C 39.503 16.85 39.512 16.819 39.512 16.819 C 39.516 16.815 39.585 16.78 39.555 16.778 C 39.53 16.791 39.482 16.791 39.337 16.79 L 39.218 16.79 L 39.218 16.925 Z M 39.38 18.128 C 39.534 18.126 39.6 18.131 39.647 18.152 C 39.664 18.148 39.645 18.129 39.631 18.123 C 39.638 18.114 39.645 18.101 39.642 18.096 C 39.632 18.11 39.646 18.102 39.6 18.106 C 39.58 18.111 39.538 18.112 39.431 18.112 L 39.218 18.112 L 39.218 18.128 Z" style="fill: none;"/>
  <path d="M 34.327 31.781 L 35.482 31.781 L 36.151 32.781 L 35.327 32.781 L 34.827 34.644 L 35.69 34.644 L 35.69 35.644 L 34.327 35.644 Z M 36.219 31.781 L 38.37 31.781 L 39.039 32.781 L 38.215 32.781 L 37.715 34.644 L 38.578 34.644 L 38.578 35.644 L 36.427 35.644 L 35.758 34.644 L 36.583 34.644 L 37.083 32.781 L 36.219 32.781 Z M 39.107 31.781 L 40.47 31.781 L 40.47 32.144 C 40.592 32.029 40.737 31.927 40.879 31.868 C 41.083 31.783 41.356 31.732 41.595 31.732 C 41.853 31.732 42.139 31.791 42.353 31.874 C 42.573 31.978 42.82 32.164 42.949 32.362 C 43.074 32.552 43.153 32.834 43.172 33.066 L 43.209 33.547 L 42.988 33.564 C 43.012 33.592 43.034 33.621 43.053 33.65 C 43.174 33.83 43.257 34.111 43.257 34.335 C 43.257 34.56 43.172 34.844 43.047 35.037 C 42.92 35.235 42.682 35.433 42.46 35.535 C 42.245 35.634 41.953 35.693 41.699 35.693 C 41.397 35.693 41.079 35.63 40.849 35.539 C 40.721 35.477 40.588 35.387 40.47 35.284 L 40.47 35.644 L 39.315 35.644 L 38.646 34.644 L 39.47 34.644 L 39.97 32.781 L 39.107 32.781 Z" style="fill: none;"/>
  <path d="M 1.447 -3.063 L 3.175 -3.063 L 3.175 2.375 Q 3.175 3.441 2.988 4.015 Q 2.736 4.765 2.074 5.219 Q 1.411 5.673 0.328 5.673 Q -0.944 5.673 -1.63 4.962 Q -2.315 4.25 -2.321 2.873 L -0.686 2.685 Q -0.657 3.423 -0.469 3.728 Q -0.188 4.191 0.386 4.191 Q 0.966 4.191 1.206 3.86 Q 1.447 3.529 1.447 2.486 Z M 6.239 1.203 L 4.745 0.933 Q 4.997 0.031 5.612 -0.403 Q 6.227 -0.836 7.44 -0.836 Q 8.542 -0.836 9.081 -0.576 Q 9.62 -0.315 9.84 0.087 Q 10.059 0.488 10.059 1.56 L 10.042 3.482 Q 10.042 4.302 10.121 4.692 Q 10.2 5.082 10.417 5.527 L 8.788 5.527 Q 8.723 5.363 8.63 5.041 Q 8.589 4.894 8.571 4.847 Q 8.149 5.257 7.669 5.463 Q 7.188 5.668 6.643 5.668 Q 5.682 5.668 5.129 5.146 Q 4.575 4.625 4.575 3.828 Q 4.575 3.3 4.827 2.887 Q 5.079 2.474 5.533 2.255 Q 5.987 2.035 6.842 1.871 Q 7.997 1.654 8.442 1.466 L 8.442 1.302 Q 8.442 0.828 8.208 0.626 Q 7.973 0.423 7.323 0.423 Q 6.884 0.423 6.637 0.596 Q 6.391 0.769 6.239 1.203 Z M 8.442 2.539 Q 8.126 2.644 7.44 2.791 Q 6.755 2.937 6.544 3.078 Q 6.221 3.306 6.221 3.658 Q 6.221 4.004 6.479 4.256 Q 6.737 4.507 7.135 4.507 Q 7.581 4.507 7.985 4.214 Q 8.284 3.992 8.378 3.67 Q 8.442 3.459 8.442 2.867 Z M 11.559 -0.696 L 13.077 -0.696 L 13.077 0.154 Q 13.891 -0.836 15.016 -0.836 Q 15.614 -0.836 16.053 -0.59 Q 16.493 -0.344 16.774 0.154 Q 17.184 -0.344 17.659 -0.59 Q 18.134 -0.836 18.673 -0.836 Q 19.358 -0.836 19.833 -0.558 Q 20.307 -0.28 20.542 0.259 Q 20.712 0.658 20.712 1.548 L 20.712 5.527 L 19.065 5.527 L 19.065 1.97 Q 19.065 1.045 18.895 0.775 Q 18.667 0.423 18.192 0.423 Q 17.846 0.423 17.542 0.634 Q 17.237 0.845 17.102 1.253 Q 16.968 1.66 16.968 2.539 L 16.968 5.527 L 15.321 5.527 L 15.321 2.117 Q 15.321 1.209 15.233 0.945 Q 15.145 0.681 14.961 0.552 Q 14.776 0.423 14.46 0.423 Q 14.079 0.423 13.774 0.629 Q 13.47 0.834 13.338 1.22 Q 13.206 1.607 13.206 2.504 L 13.206 5.527 L 11.559 5.527 Z M 25.955 3.547 L 27.596 3.822 Q 27.28 4.724 26.597 5.196 Q 25.914 5.668 24.889 5.668 Q 23.266 5.668 22.487 4.607 Q 21.871 3.757 21.871 2.463 Q 21.871 0.916 22.68 0.04 Q 23.489 -0.836 24.725 -0.836 Q 26.114 -0.836 26.916 0.081 Q 27.719 0.998 27.684 2.89 L 23.559 2.89 Q 23.576 3.623 23.957 4.03 Q 24.338 4.437 24.907 4.437 Q 25.293 4.437 25.557 4.226 Q 25.821 4.015 25.955 3.547 Z M 26.049 1.882 Q 26.032 1.168 25.68 0.796 Q 25.328 0.423 24.825 0.423 Q 24.285 0.423 23.934 0.816 Q 23.582 1.209 23.588 1.882 Z M 28.446 3.752 L 30.098 3.5 Q 30.204 3.98 30.526 4.229 Q 30.848 4.478 31.428 4.478 Q 32.067 4.478 32.389 4.244 Q 32.606 4.08 32.606 3.804 Q 32.606 3.617 32.489 3.494 Q 32.366 3.377 31.938 3.277 Q 29.946 2.838 29.413 2.474 Q 28.674 1.97 28.674 1.074 Q 28.674 0.265 29.313 -0.286 Q 29.952 -0.836 31.293 -0.836 Q 32.571 -0.836 33.192 -0.42 Q 33.813 -0.004 34.047 0.81 L 32.495 1.097 Q 32.395 0.734 32.117 0.541 Q 31.838 0.347 31.323 0.347 Q 30.672 0.347 30.391 0.529 Q 30.204 0.658 30.204 0.863 Q 30.204 1.039 30.368 1.162 Q 30.59 1.326 31.906 1.625 Q 33.221 1.923 33.743 2.357 Q 34.258 2.797 34.258 3.582 Q 34.258 4.437 33.543 5.052 Q 32.829 5.668 31.428 5.668 Q 30.157 5.668 29.415 5.152 Q 28.674 4.636 28.446 3.752 Z" transform="matrix(1, 0, 0, 1, 8.213867, 6.954658)" style="stroke-miterlimit: 8; stroke-width: 3.91678px; white-space: pre;"/>
  <path d="M 5.133 -5.021 L 5.133 -2.321 C 5.824 -2.601 6.671 -2.794 7.44 -2.794 C 8.328 -2.794 9.303 -2.597 9.935 -2.339 C 10.511 -2.021 11.197 -1.387 11.559 -0.852 C 11.814 -0.259 12.007 0.719 12.017 1.577 L 12 3.498 C 11.998 3.97 12.014 4.172 12.04 4.303 C 12.066 4.429 12.075 4.474 12.177 4.669 L 13.651 7.485 L 8.599 7.485 L 9.936 6.252 C 9.524 6.631 8.923 7.036 8.437 7.265 C 8.222 7.347 7.969 7.424 7.707 7.485 L 7.442 7.485 L 7.05 6.463 C 7.04 6.462 7.031 6.462 7.022 6.461 L 7.358 7.557 C 7.109 7.601 6.862 7.626 6.643 7.626 C 5.683 7.626 4.508 7.132 3.786 6.571 C 3.741 6.52 3.696 6.466 3.651 6.41 C 3.497 6.568 3.338 6.712 3.18 6.835 C 2.432 7.277 1.296 7.631 0.328 7.631 C -0.854 7.631 -2.214 7.034 -3.041 6.32 C -3.722 5.474 -4.226 4.103 -4.279 2.882 L -4.356 1.136 L -0.511 0.694 L -0.511 -5.021 Z M 8.085 3.606 C 8.005 3.625 7.924 3.645 7.84 3.663 C 7.941 3.69 8.026 3.706 8.086 3.707 C 8.085 3.673 8.085 3.64 8.085 3.606 Z M 27.71 6.807 C 26.99 7.305 25.833 7.626 24.889 7.626 C 23.411 7.626 21.814 6.78 20.901 5.756 C 20.342 4.885 19.913 3.596 19.913 2.463 C 19.913 1.122 20.429 -0.409 21.241 -1.289 C 22.052 -2.166 23.515 -2.794 24.725 -2.794 C 25.813 -2.794 27.014 -2.296 27.902 -1.626 C 27.946 -1.676 27.991 -1.724 28.035 -1.77 C 28.838 -2.338 30.137 -2.794 31.293 -2.794 C 32.355 -2.794 33.57 -2.524 34.282 -2.047 C 34.992 -1.571 35.636 -0.562 35.929 0.269 L 36.652 2.32 L 35.976 2.445 C 36.125 2.832 36.216 3.227 36.216 3.582 C 36.216 4.58 35.539 5.811 34.821 6.536 C 33.979 7.145 32.636 7.626 31.428 7.626 C 30.338 7.626 29.106 7.248 28.296 6.759 C 28.211 6.692 28.127 6.618 28.044 6.54 C 27.935 6.639 27.823 6.729 27.71 6.807 Z M 25.244 5.414 L 24.653 3.84 L 24.37 3.84 C 24.769 4.622 25.244 5.414 25.244 5.414 Z" style="fill: none;" transform="matrix(1, 0, 0, 1, 8.213867, 6.954658)"/>
  <path transform="matrix(1, 0, 0, 1, 8.213867, 6.954658)" style="stroke-miterlimit: 8; stroke-width: 3.91678px; white-space: pre;"/>
  <path d="M 10.838 26.529 L 12.49 26.277 C 12.56 26.597 12.703 26.84 12.918 27.006 C 13.133 27.172 13.433 27.255 13.82 27.255 C 14.246 27.255 14.566 27.177 14.781 27.021 C 14.926 26.911 14.998 26.765 14.998 26.581 C 14.998 26.456 14.959 26.353 14.881 26.271 C 14.798 26.193 14.615 26.12 14.33 26.054 C 13.002 25.761 12.16 25.493 11.804 25.251 C 11.312 24.915 11.066 24.448 11.066 23.851 C 11.066 23.311 11.279 22.858 11.705 22.491 C 12.13 22.124 12.79 21.941 13.685 21.941 C 14.537 21.941 15.17 22.079 15.584 22.357 C 15.998 22.634 16.283 23.044 16.439 23.587 L 14.886 23.874 C 14.82 23.632 14.694 23.446 14.508 23.318 C 14.323 23.188 14.058 23.124 13.715 23.124 C 13.281 23.124 12.97 23.184 12.783 23.306 C 12.658 23.392 12.595 23.503 12.595 23.64 C 12.595 23.757 12.65 23.857 12.759 23.939 C 12.908 24.048 13.421 24.202 14.298 24.402 C 15.175 24.6 15.787 24.844 16.134 25.134 C 16.478 25.427 16.65 25.835 16.65 26.359 C 16.65 26.929 16.412 27.419 15.935 27.829 C 15.458 28.239 14.753 28.445 13.82 28.445 C 12.972 28.445 12.301 28.273 11.807 27.929 C 11.313 27.585 10.99 27.118 10.838 26.529 Z M 21.695 26.324 L 23.336 26.599 C 23.125 27.2 22.792 27.658 22.337 27.973 C 21.882 28.287 21.312 28.445 20.629 28.445 C 19.547 28.445 18.746 28.091 18.226 27.384 C 17.816 26.817 17.611 26.102 17.611 25.24 C 17.611 24.208 17.881 23.401 18.42 22.817 C 18.959 22.233 19.64 21.941 20.465 21.941 C 21.39 21.941 22.121 22.246 22.656 22.858 C 23.191 23.469 23.447 24.405 23.424 25.667 L 19.299 25.667 C 19.31 26.155 19.443 26.535 19.697 26.807 C 19.951 27.078 20.267 27.214 20.646 27.214 C 20.904 27.214 21.121 27.143 21.297 27.003 C 21.472 26.862 21.605 26.636 21.695 26.324 Z M 21.789 24.659 C 21.777 24.183 21.654 23.821 21.42 23.573 C 21.185 23.324 20.9 23.2 20.564 23.2 C 20.205 23.2 19.908 23.331 19.674 23.593 C 19.439 23.855 19.324 24.21 19.328 24.659 L 21.789 24.659 Z M 24.765 28.304 L 24.765 19.714 L 26.412 19.714 L 26.412 28.304 L 24.765 28.304 Z M 28.099 28.304 L 28.099 19.714 L 29.746 19.714 L 29.746 28.304 L 28.099 28.304 Z M 30.853 26.529 L 32.506 26.277 C 32.576 26.597 32.718 26.84 32.933 27.006 C 33.148 27.172 33.449 27.255 33.836 27.255 C 34.262 27.255 34.582 27.177 34.797 27.021 C 34.942 26.911 35.014 26.765 35.014 26.581 C 35.014 26.456 34.975 26.353 34.896 26.271 C 34.814 26.193 34.631 26.12 34.346 26.054 C 33.017 25.761 32.175 25.493 31.82 25.251 C 31.328 24.915 31.082 24.448 31.082 23.851 C 31.082 23.311 31.295 22.858 31.721 22.491 C 32.146 22.124 32.806 21.941 33.701 21.941 C 34.552 21.941 35.185 22.079 35.6 22.357 C 36.014 22.634 36.299 23.044 36.455 23.587 L 34.902 23.874 C 34.836 23.632 34.71 23.446 34.524 23.318 C 34.339 23.188 34.074 23.124 33.73 23.124 C 33.297 23.124 32.986 23.184 32.799 23.306 C 32.674 23.392 32.611 23.503 32.611 23.64 C 32.611 23.757 32.666 23.857 32.775 23.939 C 32.924 24.048 33.436 24.202 34.313 24.402 C 35.19 24.6 35.803 24.844 36.15 25.134 C 36.494 25.427 36.666 25.835 36.666 26.359 C 36.666 26.929 36.428 27.419 35.951 27.829 C 35.474 28.239 34.769 28.445 33.836 28.445 C 32.988 28.445 32.317 28.273 31.823 27.929 C 31.329 27.585 31.006 27.118 30.853 26.529 Z" style="stroke-miterlimit: 8; stroke-width: 3.91678px; white-space: pre;"/>
  <path transform="matrix(1, 0, 0, 1, 8.213867, 6.954658)" style="stroke-miterlimit: 8; stroke-width: 3.91678px; white-space: pre;"/>
  <path d="M 7.279 41.543 L 8.932 41.291 C 9.002 41.611 9.144 41.854 9.359 42.02 C 9.574 42.186 9.875 42.269 10.262 42.269 C 10.687 42.269 11.008 42.191 11.223 42.035 C 11.367 41.926 11.439 41.779 11.439 41.595 C 11.439 41.471 11.4 41.367 11.322 41.285 C 11.24 41.207 11.056 41.135 10.771 41.068 C 9.443 40.776 8.601 40.508 8.246 40.265 C 7.754 39.929 7.508 39.463 7.508 38.865 C 7.508 38.326 7.721 37.873 8.146 37.505 C 8.572 37.139 9.232 36.955 10.127 36.955 C 10.978 36.955 11.611 37.094 12.025 37.371 C 12.439 37.649 12.724 38.059 12.881 38.601 L 11.328 38.888 C 11.261 38.646 11.135 38.461 10.95 38.332 C 10.765 38.203 10.5 38.138 10.156 38.138 C 9.723 38.138 9.412 38.199 9.225 38.32 C 9.1 38.406 9.037 38.518 9.037 38.654 C 9.037 38.772 9.092 38.871 9.201 38.953 C 9.35 39.063 9.862 39.217 10.739 39.416 C 11.616 39.615 12.229 39.859 12.576 40.148 C 12.92 40.442 13.092 40.85 13.092 41.373 C 13.092 41.943 12.854 42.433 12.377 42.843 C 11.9 43.254 11.195 43.459 10.262 43.459 C 9.414 43.459 8.743 43.287 8.249 42.943 C 7.755 42.599 7.432 42.133 7.279 41.543 Z M 16.173 34.728 L 16.173 37.886 C 16.704 37.266 17.339 36.955 18.077 36.955 C 18.456 36.955 18.798 37.026 19.103 37.166 C 19.408 37.307 19.637 37.487 19.791 37.705 C 19.946 37.924 20.051 38.166 20.108 38.431 C 20.165 38.697 20.193 39.11 20.193 39.668 L 20.193 43.318 L 18.546 43.318 L 18.546 40.031 C 18.546 39.379 18.515 38.965 18.452 38.789 C 18.39 38.613 18.28 38.474 18.121 38.37 C 17.963 38.266 17.765 38.214 17.527 38.214 C 17.253 38.214 17.009 38.281 16.794 38.414 C 16.579 38.547 16.422 38.747 16.323 39.014 C 16.223 39.282 16.173 39.678 16.173 40.201 L 16.173 43.318 L 14.527 43.318 L 14.527 34.728 L 16.173 34.728 Z M 25.466 41.338 L 27.107 41.613 C 26.896 42.215 26.563 42.673 26.108 42.987 C 25.653 43.302 25.083 43.459 24.4 43.459 C 23.318 43.459 22.517 43.106 21.998 42.398 C 21.587 41.832 21.382 41.117 21.382 40.254 C 21.382 39.223 21.652 38.415 22.191 37.831 C 22.73 37.247 23.412 36.955 24.236 36.955 C 25.162 36.955 25.892 37.261 26.427 37.872 C 26.962 38.484 27.218 39.42 27.195 40.681 L 23.07 40.681 C 23.081 41.17 23.214 41.55 23.468 41.821 C 23.722 42.093 24.039 42.228 24.418 42.228 C 24.675 42.228 24.892 42.158 25.068 42.017 C 25.244 41.877 25.377 41.65 25.466 41.338 Z M 25.56 39.673 C 25.549 39.197 25.426 38.835 25.191 38.587 C 24.956 38.339 24.671 38.214 24.335 38.214 C 23.976 38.214 23.679 38.345 23.445 38.607 C 23.21 38.869 23.095 39.225 23.099 39.673 L 25.56 39.673 Z M 28.537 43.318 L 28.537 34.728 L 30.183 34.728 L 30.183 43.318 L 28.537 43.318 Z M 31.87 43.318 L 31.87 34.728 L 33.517 34.728 L 33.517 43.318 L 31.87 43.318 Z M 34.624 41.543 L 36.276 41.291 C 36.347 41.611 36.489 41.854 36.704 42.02 C 36.919 42.186 37.219 42.269 37.606 42.269 C 38.032 42.269 38.352 42.191 38.567 42.035 C 38.712 41.926 38.784 41.779 38.784 41.595 C 38.784 41.471 38.745 41.367 38.667 41.285 C 38.585 41.207 38.401 41.135 38.116 41.068 C 36.788 40.776 35.946 40.508 35.591 40.265 C 35.099 39.929 34.853 39.463 34.853 38.865 C 34.853 38.326 35.066 37.873 35.491 37.505 C 35.917 37.139 36.577 36.955 37.472 36.955 C 38.323 36.955 38.956 37.094 39.37 37.371 C 39.784 37.649 40.069 38.059 40.226 38.601 L 38.673 38.888 C 38.606 38.646 38.48 38.461 38.295 38.332 C 38.11 38.203 37.845 38.138 37.501 38.138 C 37.068 38.138 36.757 38.199 36.569 38.32 C 36.444 38.406 36.382 38.518 36.382 38.654 C 36.382 38.772 36.437 38.871 36.546 38.953 C 36.695 39.063 37.207 39.217 38.084 39.416 C 38.961 39.615 39.573 39.859 39.921 40.148 C 40.264 40.442 40.436 40.85 40.436 41.373 C 40.436 41.943 40.198 42.433 39.722 42.843 C 39.245 43.254 38.54 43.459 37.606 43.459 C 36.759 43.459 36.088 43.287 35.594 42.943 C 35.1 42.599 34.777 42.133 34.624 41.543 Z" style="stroke-miterlimit: 8; stroke-width: 3.91678px; white-space: pre;"/>
  <rect x="34.821" y="1.219" width="8.815" height="3.546" style="stroke: rgb(0, 0, 0); vector-effect: non-scaling-stroke; stroke-width: 3px;"/>
  <rect x="35" y="16.335" width="8.815" height="3.839" style="stroke: rgb(0, 0, 0); vector-effect: non-scaling-stroke; stroke-width: 3px;"/>
  <rect x="35.078" y="32.01" width="8.815" height="3.839" style="stroke: rgb(0, 0, 0); vector-effect: non-scaling-stroke; stroke-width: 3px;"/>
  <path d="M 35.504 4.473 L 35.504 1.61 L 36.584 1.61 C 36.774 1.61 36.919 1.619 37.019 1.637 C 37.16 1.661 37.278 1.705 37.373 1.771 C 37.468 1.837 37.544 1.929 37.602 2.047 C 37.66 2.166 37.689 2.296 37.689 2.438 C 37.689 2.682 37.612 2.888 37.457 3.056 C 37.302 3.225 37.022 3.309 36.617 3.309 L 35.882 3.309 L 35.882 4.473 L 35.504 4.473 Z M 35.882 2.971 L 36.623 2.971 C 36.868 2.971 37.042 2.926 37.144 2.834 C 37.248 2.744 37.299 2.616 37.299 2.45 C 37.299 2.33 37.269 2.228 37.208 2.142 C 37.148 2.057 37.068 2.001 36.968 1.973 C 36.905 1.957 36.787 1.948 36.615 1.948 L 35.882 1.948 L 35.882 2.971 Z M 38.179 4.473 L 38.179 1.61 L 40.249 1.61 L 40.249 1.948 L 38.558 1.948 L 38.558 2.825 L 40.142 2.825 L 40.142 3.161 L 38.558 3.161 L 38.558 4.135 L 40.315 4.135 L 40.315 4.473 L 38.179 4.473 Z M 40.845 4.473 L 40.845 1.61 L 42.114 1.61 C 42.37 1.61 42.564 1.636 42.696 1.687 C 42.83 1.739 42.936 1.829 43.015 1.959 C 43.095 2.09 43.134 2.234 43.134 2.391 C 43.134 2.595 43.069 2.766 42.937 2.905 C 42.805 3.045 42.602 3.133 42.327 3.17 C 42.428 3.219 42.504 3.267 42.556 3.313 C 42.667 3.415 42.772 3.542 42.87 3.694 L 43.368 4.473 L 42.892 4.473 L 42.513 3.877 C 42.403 3.705 42.311 3.574 42.239 3.483 C 42.168 3.392 42.104 3.328 42.047 3.291 C 41.991 3.255 41.933 3.23 41.874 3.215 C 41.832 3.207 41.761 3.202 41.663 3.202 L 41.224 3.202 L 41.224 4.473 L 40.845 4.473 Z M 41.224 2.873 L 42.038 2.873 C 42.212 2.873 42.347 2.856 42.445 2.82 C 42.543 2.784 42.617 2.727 42.667 2.648 C 42.718 2.57 42.743 2.484 42.743 2.391 C 42.743 2.256 42.694 2.145 42.596 2.057 C 42.498 1.97 42.342 1.926 42.13 1.926 L 41.224 1.926 L 41.224 2.873 Z" style="white-space: pre; fill: rgb(255, 255, 255);"/>
  <path d="M 36.573 19.644 L 35.464 16.781 L 35.874 16.781 L 36.618 18.861 C 36.678 19.028 36.728 19.184 36.768 19.33 C 36.812 19.173 36.864 19.017 36.923 18.861 L 37.696 16.781 L 38.083 16.781 L 36.962 19.644 L 36.573 19.644 Z M 38.406 19.644 L 38.406 16.781 L 39.481 16.781 C 39.699 16.781 39.875 16.81 40.007 16.868 C 40.139 16.926 40.242 17.015 40.317 17.135 C 40.392 17.256 40.43 17.382 40.43 17.513 C 40.43 17.636 40.396 17.751 40.33 17.859 C 40.264 17.967 40.163 18.054 40.029 18.121 C 40.202 18.172 40.335 18.258 40.429 18.38 C 40.521 18.503 40.568 18.647 40.568 18.814 C 40.568 18.948 40.539 19.073 40.483 19.188 C 40.427 19.303 40.357 19.392 40.274 19.455 C 40.19 19.517 40.086 19.564 39.96 19.596 C 39.834 19.628 39.68 19.644 39.498 19.644 L 38.406 19.644 Z M 38.785 17.984 L 39.404 17.984 C 39.572 17.984 39.692 17.973 39.766 17.951 C 39.862 17.922 39.934 17.875 39.983 17.808 C 40.032 17.741 40.057 17.658 40.057 17.558 C 40.057 17.463 40.034 17.379 39.988 17.307 C 39.942 17.235 39.877 17.186 39.793 17.159 C 39.708 17.132 39.563 17.119 39.358 17.119 L 38.785 17.119 L 38.785 17.984 Z M 38.785 19.306 L 39.498 19.306 C 39.62 19.306 39.706 19.301 39.756 19.292 C 39.843 19.277 39.916 19.251 39.975 19.214 C 40.033 19.178 40.081 19.125 40.119 19.055 C 40.157 18.986 40.176 18.905 40.176 18.814 C 40.176 18.707 40.148 18.615 40.094 18.536 C 40.039 18.457 39.963 18.401 39.866 18.37 C 39.769 18.338 39.629 18.322 39.447 18.322 L 38.785 18.322 L 38.785 19.306 Z M 40.862 19.644 L 40.862 19.292 L 42.328 17.458 C 42.432 17.328 42.531 17.215 42.625 17.119 L 41.028 17.119 L 41.028 16.781 L 43.078 16.781 L 43.078 17.119 L 41.471 19.105 L 41.297 19.306 L 43.125 19.306 L 43.125 19.644 L 40.862 19.644 Z" style="white-space: pre; fill: rgb(255, 255, 255);"/>
  <path d="M 35.532 35.351 L 35.532 32.488 L 35.92 32.488 L 37.424 34.736 L 37.424 32.488 L 37.788 32.488 L 37.788 35.351 L 37.399 35.351 L 35.895 33.101 L 35.895 35.351 L 35.532 35.351 Z M 38.42 35.351 L 38.42 32.488 L 38.808 32.488 L 40.312 34.736 L 40.312 32.488 L 40.675 32.488 L 40.675 35.351 L 40.287 35.351 L 38.783 33.101 L 38.783 35.351 L 38.42 35.351 Z M 41.183 34.431 L 41.541 34.4 C 41.558 34.543 41.597 34.661 41.659 34.752 C 41.721 34.844 41.817 34.918 41.947 34.975 C 42.077 35.032 42.223 35.06 42.386 35.06 C 42.531 35.06 42.658 35.039 42.769 34.996 C 42.88 34.953 42.962 34.894 43.016 34.819 C 43.07 34.744 43.097 34.662 43.097 34.574 C 43.097 34.484 43.071 34.405 43.019 34.338 C 42.967 34.271 42.881 34.215 42.761 34.169 C 42.684 34.139 42.515 34.093 42.252 34.03 C 41.989 33.967 41.804 33.907 41.699 33.851 C 41.562 33.78 41.46 33.691 41.393 33.584 C 41.326 33.478 41.293 33.359 41.293 33.228 C 41.293 33.083 41.334 32.948 41.416 32.823 C 41.498 32.697 41.618 32.602 41.775 32.537 C 41.932 32.472 42.107 32.439 42.3 32.439 C 42.513 32.439 42.7 32.473 42.862 32.541 C 43.024 32.61 43.149 32.71 43.236 32.843 C 43.323 32.976 43.37 33.126 43.377 33.294 L 43.013 33.322 C 42.994 33.141 42.928 33.004 42.815 32.912 C 42.702 32.819 42.536 32.773 42.316 32.773 C 42.087 32.773 41.92 32.815 41.815 32.899 C 41.71 32.983 41.658 33.084 41.658 33.203 C 41.658 33.306 41.695 33.39 41.769 33.456 C 41.842 33.523 42.033 33.591 42.34 33.661 C 42.648 33.73 42.859 33.791 42.974 33.843 C 43.141 33.92 43.264 34.017 43.343 34.135 C 43.422 34.253 43.462 34.389 43.462 34.542 C 43.462 34.695 43.419 34.838 43.332 34.973 C 43.245 35.108 43.119 35.213 42.956 35.288 C 42.793 35.363 42.609 35.4 42.404 35.4 C 42.145 35.4 41.928 35.362 41.753 35.287 C 41.578 35.211 41.44 35.097 41.34 34.946 C 41.241 34.794 41.188 34.622 41.183 34.431 Z" style="white-space: pre; fill: rgb(255, 255, 255);"/>
</svg>